<svg id="Group_7" data-name="Group 7" xmlns="http://www.w3.org/2000/svg" width="29.468" height="25.827" viewBox="0 0 29.468 25.827">
  <path id="Path_10" data-name="Path 10" d="M-5915.576,532.539l.45,12.679h5.531l10.43,2.639,7.937-6.775v-8.542l-2.208-.781h-20.739Z" transform="translate(5916.323 -525.457)" fill="#6fa1ff"/>
  <g id="Group_6" data-name="Group 6" transform="translate(0)">
    <path id="Path_6" data-name="Path 6" d="M-666.515,61.146l-19.538-2.219a2.684,2.684,0,0,0-2.111.608A2.72,2.72,0,0,0-689.2,61.4l-.358,2.934h.727v.536h18.146l.856,1.1.822,1.473.445,6.164v5.856s-.171.582,0,.753a.917.917,0,0,0,.545.171v.984a3.578,3.578,0,0,0,1.36-.573,2.97,2.97,0,0,0,1.038-1.932l1.646-14.528A2.9,2.9,0,0,0-666.515,61.146Z" transform="translate(693.426 -58.901)" fill="#6fa1ff"/>
    <path id="Path_7" data-name="Path 7" d="M-704.119,159.079h-19.645a1.445,1.445,0,0,0-1.324,1.539v10.2l4.723-3.435a3.185,3.185,0,0,1,3.972.143l3.936,3.471a1.825,1.825,0,0,0,2.111.179l7.8-4.545h0v-6.012A1.646,1.646,0,0,0-704.119,159.079Zm-7.479,8.266a3.006,3.006,0,0,1-3.006-3.006,3.006,3.006,0,0,1,3.006-3.006,3.006,3.006,0,0,1,3.006,3.006A3.006,3.006,0,0,1-711.6,167.345Z" transform="translate(726.52 -152.217)" fill="none"/>
    <circle id="Ellipse_3" data-name="Ellipse 3" cx="1.575" cy="1.575" r="1.575" transform="translate(12.696 12.122) rotate(-45)" fill="none"/>
    <path id="Path_8" data-name="Path 8" d="M-569.005,191.993A3.006,3.006,0,0,0-572.011,195,3.006,3.006,0,0,0-569.005,198,3.006,3.006,0,0,0-566,195,3.006,3.006,0,0,0-569.005,191.993Zm0,4.58A1.575,1.575,0,0,1-570.58,195a1.574,1.574,0,0,1,1.574-1.574A1.575,1.575,0,0,1-567.431,195,1.575,1.575,0,0,1-569.005,196.573Z" transform="translate(583.928 -182.877)" fill="#5f16f8"/>
    <path id="Path_9" data-name="Path 9" d="M-720.593,152.638V141.151a3.077,3.077,0,0,0-3.006-2.97h-19.645a2.876,2.876,0,0,0-2.755,2.97v14.636a2.72,2.72,0,0,0,2.647,2.79H-723.6a2.938,2.938,0,0,0,3.006-2.789v-3.151Zm-1.431-5.475h0l-7.8,4.545a1.825,1.825,0,0,1-2.111-.179l-3.936-3.471a3.185,3.185,0,0,0-3.972-.143l-4.724,3.435v-10.2a1.444,1.444,0,0,1,1.324-1.539H-723.6a1.646,1.646,0,0,1,1.575,1.539Z" transform="translate(746 -132.751)" fill="#5f16f8"/>
  </g>
</svg>
